
<svg  version="1.1" id="Camada_1" xmlns="http://www.w3.org/2000/svg" xmlns:xlink="http://www.w3.org/1999/xlink" x="0px" y="0px"
	 viewBox="0 0 456.3 163.1" style="enable-background:new 0 0 456.3 163.1;" xml:space="preserve">
<style type="text/css">
	.st0{fill:#fff;}

</style>
<title>logo-completo</title>
<path class="st0" d="M108.8,105.8h25.1v13.8H88.4c0-0.3-0.1-0.7-0.1-1c0-3.6,0-7.1,0-10.7c-0.1-0.7,0.3-1.4,1-1.6
	c7.9-3.6,14.6-9.4,19.4-16.6c4.1-6.4,6.6-13.6,7.5-21.1C117.4,60,117,51.3,115,43c-1.9-8.2-6.2-15.6-12.3-21.3
	c-7.1-6.5-15.6-8.9-25-8.2c-14.5,1.1-23.4,9.7-29.2,22.3c-2.8,6.4-4.2,13.3-4.3,20.3c-0.2,8.7,0.8,17.2,4,25.4
	c4.4,11.3,12.3,19.3,23.1,24.8c0.8,0.3,1.4,1.1,1.3,2c-0.1,3.8,0,7.5,0,11.4H26.9v-13.7h25.4c-1.9-1.8-3.6-3.3-5.2-4.9
	C38,91.8,31.5,81.1,29.3,68.3c-3-17-0.8-33.3,9.4-47.7C47,8.8,58.5,2.2,72.8,0.5c8.7-1.2,17.6-0.4,26.1,2.2
	c10.4,3.4,18.2,10.2,24.2,19.2c6.6,9.8,9.3,20.8,9.6,32.5c0.5,20.6-7.8,37.1-23.1,50.4c-0.3,0.3-0.6,0.5-0.8,0.8
	C108.7,105.6,108.8,105.6,108.8,105.8z"/>
<path class="st0" d="M0,126.4v-3h456.3v3H0z"/>
<path class="st0" d="M390.6,119.5h-9.1V118c0-11.6,0-23.1,0-34.7c0-2-0.1-4.1-0.5-6.1c-1-5.6-5.1-8.1-10.6-6.7
	c-4,1-7.2,3.4-10.3,6.1s-3,2.7-3,6.8v36.1h-8.9V64.7h8.8v7.6c0.6-0.5,1-0.8,1.4-1.1c3.5-2.9,7.2-5.6,11.7-6.9
	c3.4-1.1,7-1.2,10.4-0.5c3.9,0.8,7.2,3.5,8.6,7.3c0.2,0.4,0.3,0.8,0.6,1.5c0.7-0.5,1.3-1,1.9-1.5c3.8-3.2,7.8-5.9,12.7-7.1
	c3-0.8,6.2-0.9,9.2-0.3c5.5,1.1,9.1,4.9,10.2,10.8c0.4,1.9,0.5,3.8,0.6,5.7c0,12.8,0,25.6,0,38.4c0,0.3,0,0.5,0,0.8h-9
	c0-0.4,0-0.9,0-1.4c0-11.8,0-23.7,0-35.5c0-1.7-0.2-3.4-0.5-5.1c-1-6.7-6-8-10.7-6.9c-3.9,0.9-7,3.2-10,5.6
	c-3.5,2.9-3.5,2.9-3.5,7.4v35.9L390.6,119.5z"/>
<path class="st0" d="M273,63.9l-9.7,1.3c-0.4-1-0.7-1.9-1.1-2.8c-2.2-5.1-5.5-9.2-11.2-10.7c-7.7-1.9-17.9,0.3-23.2,11
	c-2.1,4.4-3.3,9.1-3.7,14c-0.7,6.9-0.3,13.9,1.4,20.6c1.1,4.8,3.6,9.1,7.1,12.4c6.2,5.7,19.4,8.1,27.3-2.4c1.8-2.7,3.4-5.4,4.9-8.3
	l9.3,1.6c-0.1,0.3-0.1,0.6-0.2,0.9c-4.8,12.9-17.7,20.8-31.3,19.4c-13.7-1.4-22.5-8.9-26.4-21.9c-3.6-11.4-3.2-23.6,1-34.8
	c5.6-14.7,18.8-20.6,32.3-19.4C260.7,45.4,270.2,53.1,273,63.9L273,63.9z"/>
<path class="st0" d="M283,92.1c0.1-4.5,0.9-9,2.3-13.2c2.6-7.5,7.8-12.4,15.5-14.4c5.9-1.6,12.2-1.6,18.1,0
	c7.5,1.7,13.4,7.4,15.5,14.8c2.7,8.4,2.7,17.4-0.1,25.8c-2.9,8.8-9.2,13.7-18.2,15.3c-5.1,0.9-10.4,0.7-15.4-0.6
	c-9.1-2.4-14.3-8.7-16.3-17.7C283.7,98.8,283.5,95.4,283,92.1z M327,92.3c0.1-4.3-0.6-8.5-2-12.5c-2.7-6.8-8.2-10.7-15.2-10.7
	c-6.9-0.2-13,4.2-15.1,10.7c-1,2.9-1.6,5.9-1.9,9c-0.6,5.3,0,10.7,1.8,15.7c2.5,6.7,7.7,10.4,14.6,10.5c7.2,0.2,12.5-3.2,15.4-9.8
	C326.3,101.1,327.1,96.7,327,92.3L327,92.3z"/>
<path class="st0" d="M196.3,73.2v11h-41.7v-11H196.3z"/>
<path class="st0" d="M30.4,154h-2.9v-18.2h2.9v2.4c1-0.7,1.8-1.3,2.7-1.9c1.4-0.9,3-1.3,4.7-1c1.6,0.2,2.9,1.4,3.4,2.9
	c0.5-0.5,1.1-0.9,1.7-1.2c1.2-0.7,2.5-1.3,3.9-1.6c3.6-0.8,6,1.2,6,5c0.1,4.5,0,9,0,13.6h-3c0-0.4,0-0.9,0-1.3c0-3.7,0-7.4,0-11
	c0-1.4,0-3-1.5-3.8s-3-0.1-4.3,0.7c-0.2,0.1-0.3,0.3-0.5,0.4c-1.4,0.7-2.2,2.2-2,3.8c0.2,3.3,0,6.7,0,10v1.3h-3c0-0.4,0-0.9,0-1.3
	c0-3.7,0-7.4,0-11c0-1.5,0-3-1.5-3.8s-2.9,0-4.2,0.9c-1.6,0.8-2.5,2.5-2.3,4.3C30.5,146.5,30.4,150.2,30.4,154z"/>
<path class="st0" d="M263,154h-3c0-1.6,0-3.2,0-4.8c0-2.8,0.1-5.6,0-8.4c-0.1-3-2.1-4.1-4.8-2.7c-0.2,0.1-0.4,0.2-0.5,0.3
	c-1.8,1.1-2.9,2.3-2.7,4.7c0.3,3.6,0.1,7.2,0.1,10.9H249v-18.2h2.9v2.4c0.7-0.6,1.5-1.2,2.3-1.6c1.3-0.6,2.7-1.1,4.1-1.3
	c2-0.3,3.9,1,4.4,2.9c0.4-0.4,0.9-0.7,1.3-1c1.3-0.8,2.7-1.4,4.2-1.9c3.4-0.8,5.9,1,6,4.5c0.2,4.7,0,9.4,0,14.1h-3
	c0-3.8,0-7.6,0-11.3c0-0.9,0-1.8-0.2-2.7c-0.4-2.1-1.8-3-3.8-2.2c-1.4,0.7-2.8,1.6-4,2.6c-0.3,0.2-0.3,0.8-0.3,1.3c0,3.7,0,7.4,0,11
	L263,154z"/>
<path class="st0" d="M76.3,158.5c0.8-0.1,1.6-0.2,2.4-0.3c0.4,0,0.8,0.2,1.1,0.6c1.3,1.9,3.6,2.7,5.7,2.2c2-0.4,3.4-2,3.6-4
	c0.2-1.4,0.3-2.8,0.4-4.5c-1.7,1.4-3.9,2.2-6.1,2.1c-3.1,0-5.9-2-6.8-5c-1.1-3-1.1-6.3,0-9.2c1.5-4.1,6-6.2,10.1-4.7
	c0.7,0.2,1.3,0.6,1.9,1l0.8,0.6l0.1-1.4h2.9c0,0.3,0.1,0.6,0.1,0.9c0,5.7,0,11.4,0,17.1c0,1.3-0.2,2.6-0.4,3.9
	c-0.4,2.8-2.8,5-5.6,5.3c-3.6,0.6-6.8-0.2-9.2-3.2C76.8,159.4,76.7,159,76.3,158.5z M89.4,144.8c0-1.5,0-2.9,0-4.4
	c0-0.4-0.1-0.8-0.3-1.1c-1.4-1.6-3.5-2.3-5.6-1.9c-1.8,0.2-3.4,1.5-3.9,3.3c-0.9,2.5-1,5.1-0.2,7.6c1.3,4.2,5.6,5.4,9,2.6
	c0.7-0.5,1.1-1.4,1-2.2C89.3,147.4,89.4,146.1,89.4,144.8L89.4,144.8z"/>
<path class="st0" d="M23.5,141.8c-0.2,1.5-0.3,2.9-0.6,4.3c-1.4,6.1-6.2,9.3-12.4,8.3c-4.6-0.7-7.3-3.4-8.4-7.8
	c-0.8-3.1-0.8-6.4,0-9.6c1.3-5.1,5.1-7.9,10.5-7.9s9.1,2.9,10.3,8C23.2,138.7,23.3,140.3,23.5,141.8z M20.4,141.8
	c-0.4-2.1-0.9-4.3-1.6-6.3c-1-2.7-3.6-4.4-6.4-4.2c-2.8-0.1-5.4,1.6-6.4,4.2c-1.8,4-1.8,8.6,0,12.7c1,2.6,3.6,4.3,6.4,4.2
	c2.8,0.2,5.4-1.5,6.4-4.2C19.5,146.1,20,144,20.4,141.8L20.4,141.8z"/>
<path class="st0" d="M381.7,154h-2.9l-0.1-1.7c-1.6,1.5-3.7,2.3-5.9,2.2c-2.7,0-5.1-1.6-6.1-4.1c-1.5-3.5-1.5-7.4,0-10.9
	c1.5-3.7,5.7-5.4,9.4-3.9c0.4,0.2,0.8,0.4,1.2,0.6c0.5,0.3,0.9,0.6,1.5,1V129h2.9L381.7,154z M378.8,144.8c0-1.3,0-2.7,0-4
	c0.1-0.3,0-0.7-0.2-1c-1.1-1.6-3-2.6-4.9-2.6c-1.9,0-3.6,1.2-4.1,3c-1.2,3-1.2,6.3,0,9.3c0.3,0.6,0.6,1.2,1.1,1.6
	c1.4,1.4,3.5,1.7,5.2,0.8c1.6-0.8,3.1-1.8,2.9-4C378.7,146.9,378.7,145.9,378.8,144.8L378.8,144.8z"/>
<path class="st0" d="M386,144.8c0-0.8,0-1.5,0.1-2.3c0.7-4.9,5.2-8.2,10.1-7.5c1.5,0.2,2.9,0.8,4,1.7c1.2,1,2.1,2.2,2.6,3.7
	c1.1,2.9,1.1,6.2,0,9.1c-0.8,2.5-3,4.4-5.7,4.8c-1.3,0.2-2.6,0.3-3.9,0.2c-4.4-0.5-6.9-3.3-7.3-7.9c0-0.6,0-1.2,0-1.8L386,144.8z
	 M388.8,144.7c0.3,1.6,0.6,3.2,1.1,4.7c0.7,1.9,2.5,3.2,4.6,3.1c2.1,0.2,4.1-0.9,5-2.9c1.4-3,1.4-6.6,0-9.6
	c-0.8-1.9-2.7-3.1-4.7-2.9c-2-0.1-3.9,1-4.7,2.9C389.5,141.6,389.1,143.1,388.8,144.7L388.8,144.7z"/>
<path class="st0" d="M227.3,144.8c0-0.7,0-1.4,0.1-2.1c0.7-4.9,5.1-8.3,10-7.6c1.5,0.2,2.9,0.8,4.2,1.7c3.7,2.8,3.7,6.8,3.1,10.9
	c-0.2,3.1-2.4,5.7-5.4,6.5c-2.1,0.6-4.2,0.6-6.3,0c-3.3-0.9-5.3-3.6-5.5-7.5c0-0.6,0-1.2,0-1.8L227.3,144.8z M230.1,144.8
	c0.3,1.6,0.7,3.2,1.3,4.8c0.7,1.9,2.6,3,4.6,2.9c2,0.2,4-0.9,4.8-2.7c1.5-3.1,1.6-6.7,0.1-9.8c-0.8-1.9-2.7-3-4.8-2.9
	c-2-0.1-3.8,1-4.6,2.9C230.8,141.6,230.4,143.2,230.1,144.8L230.1,144.8z"/>
<path class="st0" d="M73.1,145.3H59.7c-0.9,4.5,2.8,8.4,6.8,7.1c1.1-0.4,2-1,2.6-1.9c0.4-0.9,1.4-1.3,2.4-1c0.4,0.1,0.9,0.1,1.5,0.2
	c-0.9,2.3-2.9,4-5.3,4.4c-1.8,0.3-3.6,0.3-5.3,0c-2.3-0.4-4.3-2-5-4.3c-1.2-3.2-1.2-6.8,0-10c1.2-3.2,3.7-4.6,6.9-4.8
	s5.9,0.9,7.6,3.9C72.7,140.9,73.2,143.1,73.1,145.3z M59.6,143.6h10.2c0-3.8-2.3-6.7-5.1-6.7C61.7,137,59.5,139.8,59.6,143.6z"/>
<path class="st0" d="M190.6,145.4h-13.5c0.1,2.3,0.4,4.3,1.9,5.9c1.8,2,4.9,2.1,6.8,0.2c0.2-0.2,0.4-0.4,0.5-0.6
	c0.6-1.2,2.1-1.7,3.3-1.2c0.2,0.1,0.5,0.1,0.8,0.1c-1.2,2.7-3.9,4.5-6.9,4.6c-5.8,0.6-9.5-2.5-9.6-8.4c-0.1-2,0.2-4,0.7-6
	c1-3.3,3.6-4.6,6.9-4.9s6,0.9,7.6,4C190.3,141.2,190.7,143.3,190.6,145.4z M187.4,143.7c0-3.8-2.3-6.8-5.1-6.7
	c-3.1,0-5.2,2.8-5.1,6.7H187.4z"/>
<path class="st0" d="M437.8,145.3h-13.4c-0.8,4.6,2.8,8.4,6.8,7.1c1.1-0.4,2-1,2.6-1.9c0.5-0.9,1.5-1.2,2.4-0.9
	c0.4,0.1,0.9,0.1,1.4,0.2c-0.8,2.6-3.6,4.5-7,4.7c-5.8,0.4-9.3-2.6-9.4-8.5c-0.1-2,0.2-4.1,0.8-6c1-3.2,3.6-4.6,6.8-4.8
	s5.9,0.9,7.6,3.9C437.4,141,437.9,143.2,437.8,145.3z M434.5,143.7c0.2-3.7-2.2-6.8-5.1-6.7c-3.1,0.1-5.4,3.2-5,6.7H434.5z"/>
<path class="st0" d="M111.6,154c-1-0.4-2.8,0.9-3.3-1.3c-2.2,1.6-5,2.2-7.6,1.6c-2-0.4-3.5-1.3-4-3.4s-0.2-4.3,1.8-5.6
	c1.6-1,3.2-1.7,5-2.2c1.6-0.4,3.2-0.8,4.8-1c0.4-2.6-0.4-4.4-2.3-4.9c-2.5-0.7-4.2,0.2-5.5,3.2l-2.9-0.3c0.3-2,1.7-3.7,3.7-4.3
	c2.1-0.8,4.5-0.8,6.7-0.1c2.3,0.7,3.4,2.5,3.5,5.6s0,6.2,0,9.3C111.3,151.7,111.5,152.8,111.6,154z M108.3,143.7
	c-1.6,0.4-3.1,0.6-4.4,1.1c-1,0.3-2,0.8-2.8,1.5c-1.3,1.1-1.8,2.8-1.2,4.4c0.4,1.3,1.6,2,3.4,2c1.6,0,3.2-0.5,4.5-1.6
	c0.3-0.3,0.5-0.6,0.6-1C108.3,148,108.3,145.9,108.3,143.7z"/>
<path class="st0" d="M362,154c-1-0.3-2.7,0.9-3.3-1.3c-1.9,1.4-4.2,2-6.5,1.8c-4.2-0.3-6.2-3.2-5-6.9c0.5-1.6,1.7-2.8,3.2-3.3
	c2.4-0.8,5-1.4,7.5-2c0.2,0,0.5-0.1,0.7-0.1c0.5-2.6-0.4-4.4-2.2-5c-2.5-0.8-4.2,0.2-5.5,3.2l-2.9-0.3c0.3-1.9,1.6-3.5,3.3-4.2
	c2.3-1,5-1.1,7.4-0.2c2.5,0.9,3.1,3.1,3.2,5.5c0.1,3.1,0,6.3,0,9.4C361.7,151.7,361.9,152.8,362,154z M358.7,143.8
	c-1,0.2-1.9,0.3-2.7,0.5c-0.6,0.1-1.2,0.3-1.8,0.5c-1,0.4-2,1-3,1.6c-1.3,1.1-1.7,2.8-1.1,4.3c0.6,1.5,1.9,1.9,3.3,2
	c1.7,0.1,3.3-0.5,4.6-1.6c0.3-0.2,0.5-0.5,0.5-0.9C358.7,148.1,358.7,146,358.7,143.8z"/>
<path class="st0" d="M294.5,153.9h-2.9v-2.6c-0.8,0.6-1.4,1-2.1,1.5c-1.6,1.1-3.4,1.7-5.3,1.6c-3.4,0-5.3-1.7-5.4-5.1
	c-0.1-4.5,0-9,0-13.6h3c0,0.4,0,0.9,0,1.3c0,3.7,0,7.4,0,11.2c0,3.2,1.8,4.7,4.9,3.7c1.5-0.6,3-1.4,4.3-2.4c0.3-0.4,0.5-0.9,0.5-1.4
	c0-3.7,0-7.4,0-11.2v-1.3h2.9L294.5,153.9z"/>
<path class="st0" d="M299.7,135.7h2.9v2.5l2.5-1.6c1.4-0.9,3-1.4,4.7-1.4c3.2,0,5.1,1.5,5.3,4.8c0.2,4.6,0,9.3,0,14h-3
	c0-1.6,0-3.3,0-4.9c0-2.7,0-5.4,0-8c-0.1-2.8-1.8-4.2-4.5-3.4c-1.6,0.6-3.1,1.5-4.5,2.5c-0.3,0.2-0.4,0.9-0.4,1.3
	c0,3.7,0,7.4,0,11.2v1.3h-2.9L299.7,135.7z"/>
<path class="st0" d="M151.4,153.9c0-1.4,0-2.8,0-4.1c0-2.9,0.1-5.9,0-8.8s-1.8-4.2-4.5-3.4c-1.6,0.6-3.1,1.5-4.5,2.5
	c-0.3,0.2-0.4,0.9-0.4,1.3c0,4.1,0,8.2,0,12.4H139v-18.1h2.9v2.5l2.5-1.6c1.4-0.9,3-1.4,4.7-1.4c3.2,0,5.1,1.5,5.3,4.8
	c0.2,4.6,0,9.3,0,14L151.4,153.9z"/>
<path class="st0" d="M224.3,139.6c-0.6,0.1-1.1,0.2-1.5,0.3c-0.9,0.2-1.8-0.1-2.3-0.9c-1.8-2.5-5.7-2.4-7.8,0
	c-2.3,2.7-2.4,8.9-0.2,11.7s6.5,2.6,8.1-0.3c0.4-1,1.4-1.4,2.4-1.1c0.4,0.1,0.9,0.2,1.4,0.2c-0.7,2.8-3.2,4.7-6.6,5
	c-6,0.6-9.7-2.7-9.9-8.7c-0.1-1,0-2.1,0.1-3.1c0.8-5.4,5-8.3,10.6-7.3C221.1,135.6,223.3,137.3,224.3,139.6z"/>
<path class="st0" d="M344,149.5c-1,2.9-3.7,5-6.8,5c-6,0.4-9.6-2.8-9.7-8.8c-0.1-1,0-2.1,0.1-3.1c0.9-5.4,5-8.2,10.5-7.3
	c3,0.5,4.9,1.9,5.6,4.4c-0.5,0.1-0.9,0.1-1.4,0.2c-0.9,0.3-1.9-0.1-2.4-1c-1.8-2.5-5.7-2.4-7.8,0.1c-2.2,2.7-2.3,8.8-0.2,11.6
	s6.5,2.7,8.1-0.2c0.4-1,1.6-1.5,2.6-1.1C343.2,149.4,343.6,149.4,344,149.5z"/>
<path class="st0" d="M453.9,138.6c-0.6,0.1-1.1,0.2-1.7,0.2c-0.4,0-0.8-0.2-1.1-0.4c-1.7-1.6-4.3-1.9-6.4-0.9
	c-1.1,0.7-1.4,2.2-0.7,3.3c0.1,0.2,0.3,0.4,0.4,0.5c0.8,0.6,1.7,1.1,2.6,1.4c1.5,0.6,3,0.9,4.5,1.5c2,0.7,3.3,2.6,3.2,4.8
	c0.1,2.2-1.3,4.1-3.4,4.8c-2.6,1-5.5,1-8.1,0c-1.3-0.5-2.3-1.5-2.8-2.8c1.3-0.1,2.4-0.7,3.6,0.6c1.3,1.6,4.6,1.6,6.3,0.4
	c1.5-1.1,1.8-3.1,0.7-4.6c-0.3-0.4-0.6-0.7-1-0.9c-1.1-0.5-2.2-1-3.4-1.3c-1.2-0.4-2.4-0.8-3.5-1.3c-1.7-0.7-2.7-2.5-2.5-4.3
	c0.1-1.8,1.3-3.4,3.1-3.9c2.4-0.8,4.9-0.8,7.3,0C452.4,136.2,453.4,137.2,453.9,138.6z"/>
<path class="st0" d="M160.7,137.6h-3.2v-1.9h3.1v-4h3v3.9h6.4v1.9h-6.4c0,0.8,0,1.5,0,2.2c0,2.5,0,5,0,7.5c0,0.7,0.1,1.4,0.2,2.1
	c0.2,2,2,3.4,4,3.1c0.3,0,0.6-0.1,0.9-0.2c0.8-0.3,1.6-0.6,2.4-0.9l0.8,1.8c-2.3,1.4-5.1,1.7-7.6,1c-2.3-0.7-3.6-2.5-3.6-5.4
	c0-3.2,0-6.4,0-9.5C160.7,138.7,160.7,138.3,160.7,137.6z"/>
<path class="st0" d="M130.3,129.7h3v24.3h-3V129.7z"/>
<path class="st0" d="M407.8,135.7h2.9v2.1c0.8-0.6,1.3-1.1,1.9-1.5c1.2-1,2.9-1.3,4.4-1c1.9,0.5,2.3,0.5,1.4,2.9
	c-2.7-1.4-6-0.5-7.5,2.1c-0.2,0.4-0.3,0.8-0.2,1.2c0,3.7,0,7.4,0,11.2v1.3h-2.9V135.7z"/>
<path class="st0" d="M197.4,154h-2.9v-18.2h2.9l0.1,2l1.7-1.3c1.3-1,2.9-1.4,4.5-1.2c2,0.3,2.3,1,1.5,3c-2.7-1.5-6-0.5-7.5,2.1
	c-0.2,0.4-0.2,0.8-0.2,1.2C197.4,145.6,197.4,149.7,197.4,154z"/>
<path class="st0" d="M323.2,153.9h-2.9v-18.2h2.9V153.9z"/>
<path class="st0" d="M320.3,131.6v-2.9h2.9v2.9H320.3z"/>
</svg>
