<svg xmlns="http://www.w3.org/2000/svg" viewBox="0 0 425.98 425.98"><defs><style>.cls-1{fill:#CDCDCD;}.cls-2{fill:#000;}</style></defs><title>logo-circulo</title><g id="Camada_3" data-name="Camada 3"><circle class="cls-1" cx="212.99" cy="212.99" r="212.99"/></g><g id="Camada_1" data-name="Camada 1"><path class="cls-2" d="M323.52,310.35h25.14v13.77H303.17c0-.34-.06-.66-.06-1,0-3.56,0-7.12,0-10.67a1.51,1.51,0,0,1,1-1.61,46.92,46.92,0,0,0,19.37-16.63,49.79,49.79,0,0,0,7.46-21.1,67.43,67.43,0,0,0-1.19-25.55,42.59,42.59,0,0,0-12.32-21.31c-7.07-6.53-15.56-8.92-25-8.19-14.52,1.12-23.46,9.67-29.19,22.29A51,51,0,0,0,259,260.62c-.19,8.69.83,17.21,4,25.36,4.44,11.27,12.34,19.34,23.06,24.76a1.87,1.87,0,0,1,1.26,2c-.07,3.76,0,7.53,0,11.39H241.69V310.39h25.37c-1.87-1.75-3.57-3.27-5.19-4.88-9.15-9.11-15.58-19.79-17.82-32.61-3-17-.76-33.25,9.37-47.69,8.28-11.81,19.84-18.42,34.17-20.1a60.84,60.84,0,0,1,26.07,2.15c10.44,3.37,18.18,10.22,24.22,19.18,6.63,9.82,9.31,20.78,9.57,32.5.46,20.58-7.81,37.11-23.12,50.44-.28.25-.55.51-.82.76C323.48,310.16,323.51,310.22,323.52,310.35Z" transform="translate(-228.03 -70.33)"/><path class="cls-2" d="M605.37,324.13h-9.08v-1.52c0-11.55,0-23.1,0-34.65a34.94,34.94,0,0,0-.48-6.11c-1-5.58-5.1-8.13-10.61-6.72-4,1-7.24,3.39-10.27,6.07s-3,2.73-3,6.8v36.11H563V269.28h8.8v7.61c.58-.46,1-.77,1.36-1.09,3.53-2.92,7.19-5.62,11.66-6.95a20.33,20.33,0,0,1,10.41-.47,11.69,11.69,0,0,1,8.65,7.28c.18.42.34.85.59,1.46.67-.54,1.27-1,1.85-1.5,3.76-3.2,7.79-5.91,12.7-7.05a21.61,21.61,0,0,1,9.21-.29c5.53,1.1,9.13,4.89,10.24,10.83a32.36,32.36,0,0,1,.56,5.73c0,12.81,0,25.61,0,38.42,0,.25,0,.5,0,.84h-9c0-.45,0-.93,0-1.42,0-11.84,0-23.69,0-35.53a36.26,36.26,0,0,0-.45-5.12c-1-6.72-6-8-10.67-6.94-3.86.89-7,3.15-9.95,5.63-3.48,2.91-3.47,2.92-3.47,7.45v35.94Z" transform="translate(-228.03 -70.33)"/><path class="cls-2" d="M487.77,268.51l-9.68,1.34c-.38-1-.73-1.9-1.12-2.81-2.22-5.14-5.5-9.24-11.19-10.66-7.73-1.92-17.92.28-23.23,11a38.69,38.69,0,0,0-3.66,14A58.82,58.82,0,0,0,440.32,302a25.31,25.31,0,0,0,7.13,12.45c6.17,5.69,19.4,8.14,27.31-2.45a84.85,84.85,0,0,0,4.86-8.29l9.31,1.56a8.62,8.62,0,0,1-.22.87,30,30,0,0,1-31.32,19.38c-13.7-1.41-22.5-8.87-26.38-21.89a53.2,53.2,0,0,1,1-34.76c5.55-14.66,18.83-20.59,32.31-19.39a25.56,25.56,0,0,1,23.49,19Z" transform="translate(-228.03 -70.33)"/><path class="cls-2" d="M497.8,296.73a48.45,48.45,0,0,1,2.27-13.24c2.64-7.49,7.77-12.37,15.46-14.41a34.7,34.7,0,0,1,18.11,0,21.12,21.12,0,0,1,15.54,14.79,41,41,0,0,1-.1,25.78c-2.92,8.75-9.23,13.68-18.22,15.27a35.46,35.46,0,0,1-15.43-.58c-9.15-2.44-14.33-8.68-16.29-17.7C498.43,303.39,498.23,300,497.8,296.73Zm44,.15a34.29,34.29,0,0,0-2-12.49c-2.68-6.83-8.17-10.68-15.18-10.67a15.41,15.41,0,0,0-15.1,10.72,38.43,38.43,0,0,0-1.92,9,33.9,33.9,0,0,0,1.84,15.69c2.54,6.65,7.73,10.36,14.59,10.51,7.22.16,12.54-3.23,15.43-9.85A32.81,32.81,0,0,0,541.78,296.88Z" transform="translate(-228.03 -70.33)"/><path class="cls-2" d="M411,277.82v11H369.28v-11Z" transform="translate(-228.03 -70.33)"/></g></svg>